<svg width="17.000000" height="16.000000" viewBox="0 0 17 16" fill="none" xmlns="http://www.w3.org/2000/svg" xmlns:xlink="http://www.w3.org/1999/xlink">
	<desc>
			Created with Pixso.
	</desc>
	<defs/>
	<path d="M10.17 2.14L16.07 2.14L16.07 14.16C16.07 14.68 15.6 15 15.1 15L0.89 15C0.38 15 0 14.6 0 14.08L0 2.14L5.82 2.14" stroke="#2F3035" stroke-opacity="1.000000" stroke-width="1.500000"/>
	<path d="M10.38 2.14L16.01 2.14C16.05 2.14 16.09 2.11 16.05 2.07L13.95 0L2.11 0L0.01 2.07C-0.03 2.11 0.01 2.14 0.05 2.14L5.68 2.14" stroke="#2F3035" stroke-opacity="1.000000" stroke-width="1.500000"/>
	<path d="M10.71 2.14L9.78 0L6.38 0L5.35 2.14" stroke="#2F3035" stroke-opacity="1.000000" stroke-width="1.500000"/>
	<path d="M10.71 2.14L10.71 6.42L8.1 4.92L5.35 6.42L5.35 2.14" stroke="#2F3035" stroke-opacity="1.000000" stroke-width="1.500000"/>
	<path d="M6.12 10.71C5.67 10.71 5.35 10.27 5.35 9.78L5.35 9.49C5.35 8.96 5.71 8.57 6.12 8.57L9.94 8.57C10.38 8.57 10.71 9 10.71 9.49L10.71 9.78C10.75 10.32 10.38 10.71 9.98 10.71L6.12 10.71Z" stroke="#2F3035" stroke-opacity="1.000000" stroke-width="1.500000"/>
</svg>
