<svg width="30.000000" height="30.000000" viewBox="0 0 30 30" fill="none" xmlns="http://www.w3.org/2000/svg" xmlns:xlink="http://www.w3.org/1999/xlink">
	<desc>
			Created with Pixso.
	</desc>
	<defs/>
	<path id="Vector" d="M30 15C30 6.71704 23.2832 0 15 0C6.7168 0 0 6.71704 0 15C0 23.283 6.7168 30 15 30C15.0879 30 15.1758 29.9982 15.2637 29.9966L15.2637 18.3197L12.041 18.3197L12.041 14.564L15.2637 14.564L15.2637 11.8003C15.2637 8.59497 17.2202 6.85046 20.0796 6.85046C21.4487 6.85046 22.6255 6.95251 22.9688 6.99805L22.9688 10.348L20.9971 10.348C19.4419 10.348 19.1406 11.0873 19.1406 12.1719L19.1406 14.564L22.8599 14.564L22.375 18.3197L19.1406 18.3197L19.1406 29.4204C25.4102 27.623 30 21.8468 30 15Z" fill="#2F3035" fill-opacity="1.000000" fill-rule="nonzero"/>
</svg>
