<svg width="8.000000" height="9.341309" viewBox="0 0 8 9.34131" fill="none" xmlns="http://www.w3.org/2000/svg" xmlns:xlink="http://www.w3.org/1999/xlink">
	<desc>
			Created with Pixso.
	</desc>
	<defs/>
	<mask id="mask_1_973" fill="white">
		<path d="M3.15137 5.76367L4.10107 5.76367C4.48486 5.76367 4.86865 5.76367 5.27246 5.72522C6.76758 5.64832 7.95947 4.43652 7.99951 2.95544C8 2.94263 8 2.92969 8 2.91675C8 1.41345 6.83545 0.108154 5.35352 0.0318604C4.40381 -0.0065918 3.47461 -0.0065918 2.48486 0.0125732C2.04053 0.0318604 1.5957 0.0318604 1.13135 0.0318604L0.929199 0.0318604L0.929199 4.45581L0 4.45581L0 5.74451L0.929199 5.74451L0.929199 6.26392L0.0200195 6.26392L0.0200195 7.55261L0.929199 7.55261L0.929199 9.34131L2.38379 9.34131L2.38379 7.55261L4.62598 7.55261L4.62598 6.26392L2.38379 6.26392L2.38379 5.76367L3.15137 5.76367ZM3.43408 4.47498L2.72705 4.47498L2.72705 4.45581L2.38379 4.45581L2.38379 1.2821L3.11084 1.2821C3.28467 1.2821 3.45557 1.28088 3.625 1.27966L3.625 1.27966C4.12451 1.27612 4.60791 1.27258 5.09082 1.30139C5.95947 1.33984 6.646 2.03223 6.646 2.87854C6.64648 2.89087 6.64648 2.9032 6.64648 2.91541C6.64648 3.7074 6.00781 4.38 5.21191 4.45581C4.86865 4.47498 4.28271 4.49426 3.43408 4.47498Z" clip-rule="evenodd" fill="" fill-opacity="1.000000" fill-rule="evenodd"/>
	</mask>
	<path d="M3.15137 5.76367L4.10107 5.76367C4.48486 5.76367 4.86865 5.76367 5.27246 5.72522C6.76758 5.64832 7.95947 4.43652 7.99951 2.95544C8 2.94263 8 2.92969 8 2.91675C8 1.41345 6.83545 0.108154 5.35352 0.0318604C4.40381 -0.0065918 3.47461 -0.0065918 2.48486 0.0125732C2.04053 0.0318604 1.5957 0.0318604 1.13135 0.0318604L0.929199 0.0318604L0.929199 4.45581L0 4.45581L0 5.74451L0.929199 5.74451L0.929199 6.26392L0.0200195 6.26392L0.0200195 7.55261L0.929199 7.55261L0.929199 9.34131L2.38379 9.34131L2.38379 7.55261L4.62598 7.55261L4.62598 6.26392L2.38379 6.26392L2.38379 5.76367L3.15137 5.76367ZM3.43408 4.47498L2.72705 4.47498L2.72705 4.45581L2.38379 4.45581L2.38379 1.2821L3.11084 1.2821C3.28467 1.2821 3.45557 1.28088 3.625 1.27966L3.625 1.27966C4.12451 1.27612 4.60791 1.27258 5.09082 1.30139C5.95947 1.33984 6.646 2.03223 6.646 2.87854C6.64648 2.89087 6.64648 2.9032 6.64648 2.91541C6.64648 3.7074 6.00781 4.38 5.21191 4.45581C4.86865 4.47498 4.28271 4.49426 3.43408 4.47498Z" clip-rule="evenodd" fill="#C4C4C4" fill-opacity="1.000000" fill-rule="evenodd" mask="url(#mask_1_973)"/>
	<path d="M2.63379 5.76367L4.10107 5.76367C4.48486 5.76367 4.86865 5.76367 5.27246 5.72522C6.76758 5.64832 7.95947 4.43652 7.99951 2.95544C8 2.94263 8 2.92969 8 2.91675C8 1.41345 6.83545 0.108154 5.35352 0.0318604C4.40381 -0.0065918 3.47461 -0.0065918 2.48486 0.0125732C2.05581 0.0311969 1.62631 0.0318375 1.1792 0.0318596L1.13135 0.0318604L0.929199 0.0318604L0.929199 4.45581L0 4.45581L0 5.74451L0.929199 5.74451L0.929199 6.26392L0.0200195 6.26392L0.0200195 7.55261L0.929199 7.55261L0.929199 9.34131L2.38379 9.34131L2.38379 7.55261L4.62598 7.55261L4.62598 6.26392L2.38379 6.26392L2.38379 5.76367L2.63379 5.76367ZM4.37598 6.51392L2.13379 6.51392L2.13379 5.51367L4.10107 5.51367Q4.85645 5.51367 5.24902 5.47632L5.25439 5.47583L5.25977 5.47559Q5.52628 5.46189 5.77965 5.39694Q6.00488 5.3392 6.21973 5.24097Q6.43143 5.14412 6.62016 5.01396Q6.82537 4.87244 7.00342 4.69153Q7.19691 4.49485 7.3427 4.26758Q7.45407 4.09395 7.5376 3.90247Q7.63528 3.67836 7.68813 3.44414Q7.74281 3.20185 7.74951 2.94873L7.75 2.91516Q7.75 2.69548 7.71464 2.48165Q7.66858 2.20309 7.5625 1.93445Q7.46591 1.69046 7.32739 1.47321Q7.20401 1.27971 7.04736 1.10742Q6.81848 0.855553 6.54255 0.675997Q6.41701 0.594309 6.28174 0.527588Q6.03085 0.403924 5.76556 0.341579Q5.55738 0.292658 5.34033 0.281494Q4.10221 0.231409 2.49524 0.262467Q2.05738 0.281349 1.1792 0.281847L1.1792 4.70581L0.25 4.70581L0.25 5.49451L1.1792 5.49451L1.1792 6.51392L0.27002 6.51392L0.27002 7.30261L1.1792 7.30261L1.1792 9.09131L2.13379 9.09131L2.13379 7.30261L4.37598 7.30261L4.37598 6.51392ZM3.43408 4.47498L2.72705 4.47498L2.72705 4.45581L2.38379 4.45581L2.38379 1.2821L3.11084 1.2821C3.28467 1.2821 3.45557 1.28088 3.625 1.27966L3.63027 1.27963C4.12791 1.2761 4.60961 1.27268 5.09082 1.30139C5.95947 1.33984 6.646 2.03223 6.646 2.87854C6.64648 2.89087 6.64648 2.9032 6.64648 2.91541C6.64648 3.7074 6.00781 4.38 5.21191 4.45581C4.86865 4.47498 4.28271 4.49426 3.43408 4.47498ZM6.89599 2.87231Q6.89536 2.68609 6.85759 2.50773Q6.8225 2.34208 6.75537 2.18323Q6.70015 2.0522 6.62613 1.93284Q6.51885 1.75984 6.37207 1.61133Q6.25965 1.49757 6.13155 1.40565Q5.97814 1.29556 5.80225 1.2168Q5.63773 1.14311 5.46544 1.10194Q5.28951 1.0599 5.10547 1.05176Q4.61438 1.02259 3.62354 1.02966L3.62305 1.02967L3.11084 1.0321L2.13379 1.0321L2.13379 4.70581L2.47705 4.70581L2.47705 4.72498L3.42871 4.72498Q4.45947 4.74829 5.22607 4.70544L5.23584 4.70471Q5.38974 4.69003 5.53695 4.65046Q5.71528 4.60252 5.88379 4.51807Q6.03326 4.44321 6.16508 4.34473Q6.29637 4.24664 6.41016 4.12512Q6.55429 3.97117 6.6576 3.79348Q6.71877 3.68826 6.76562 3.57471Q6.83875 3.39688 6.87101 3.21193Q6.89648 3.06589 6.89648 2.91541Q6.89648 2.8938 6.896 2.87231L6.89599 2.87231Z" clip-rule="evenodd" fill="#FFFFFF" fill-opacity="1.000000" fill-rule="evenodd"/>
</svg>
