<svg width="15.000000" height="17.996948" viewBox="0 0 15 17.9969" fill="none" xmlns="http://www.w3.org/2000/svg" xmlns:xlink="http://www.w3.org/1999/xlink">
	<desc>
			Created with Pixso.
	</desc>
	<defs/>
	<path d="M2.12012 8.91797C2.12012 6.13867 2.12012 3.35938 2.12012 0.394897C4.92334 0.394897 7.46094 0.283691 9.99902 0.431885C12.6504 0.5802 14.6577 3.02588 14.582 5.69397C14.5063 8.28796 12.4609 10.5485 9.80957 10.6595C7.91553 10.7708 6.05957 10.6967 4.08984 10.6967L2.12012 8.91797ZM4.08984 2.09949C4.08984 4.47107 4.08984 6.69446 4.08984 8.99207C4.58203 9.02905 6.05957 8.99207 6.43848 8.99207C7.49902 8.99207 8.97607 9.02905 9.80957 8.91797C11.5898 8.73267 12.8774 7.21326 12.8398 5.50867C12.8018 3.72998 11.438 2.21069 9.58203 2.09949C7.80176 2.02539 5.98389 2.09949 4.08984 2.09949Z" fill="#1C62CD" fill-opacity="1.000000" fill-rule="nonzero"/>
	<path d="M7.68896 11.1042C7.12109 11.1042 6.51465 11.1042 5.90869 11.1042C5.30273 11.1042 4.69678 11.1042 4.09082 11.1042L4.09082 10.3632C4.69678 10.3632 5.30273 10.3632 5.90869 10.3632C7.23438 10.3632 8.52246 10.4003 9.81006 10.326C12.2344 10.1779 14.166 8.17676 14.2041 5.69397C14.2798 3.13708 12.3481 0.950806 9.96191 0.80249C8.21924 0.691406 6.47705 0.728394 4.65869 0.765503C3.93896 0.765503 3.21924 0.80249 2.49951 0.80249L2.49951 8.95496L1.74219 8.95496L1.74219 0.0614014L2.12109 0.0614014C2.99219 0.0614014 3.82568 0.0614014 4.65869 0.024292C6.51465 -0.0126953 8.25732 -0.0126953 10.0376 0.0614014C12.8403 0.209595 15.0376 2.76648 14.9995 5.69397C14.9238 8.54736 12.689 10.882 9.88623 11.0302C9.12842 11.1042 8.40869 11.1042 7.68896 11.1042ZM7.68896 9.36267C7.31006 9.36267 6.89355 9.36267 6.43896 9.36267C6.2876 9.36267 5.98438 9.36267 5.64355 9.36267C5.0376 9.36267 4.35596 9.36267 4.05273 9.36267L3.71191 9.32556L3.71191 1.69189L4.09082 1.69189C4.69678 1.69189 5.26465 1.69189 5.83301 1.69189C7.12109 1.69189 8.37109 1.65479 9.62109 1.729C11.6284 1.84009 13.2192 3.50769 13.2573 5.50879C13.2949 7.43567 11.7798 9.10327 9.88623 9.28845C9.39355 9.36267 8.63623 9.36267 7.68896 9.36267ZM6.2876 8.62146C6.36328 8.62146 6.40137 8.62146 6.43896 8.62146C8.02979 8.65857 9.12842 8.62146 9.77246 8.58447C11.2876 8.43616 12.4995 7.10217 12.4619 5.54578C12.4619 3.91528 11.1738 2.5813 9.54492 2.50708C8.33301 2.43298 7.12109 2.47009 5.83301 2.47009C5.37842 2.47009 4.92383 2.47009 4.46924 2.47009L4.46924 8.62146C4.81055 8.62146 5.26465 8.62146 5.64355 8.62146C5.90869 8.62146 6.13623 8.62146 6.2876 8.62146Z" fill="#1C62CD" fill-opacity="1.000000" fill-rule="nonzero"/>
	<path d="M0.416016 8.99207L4.77197 8.99207L4.77197 10.7338L0.416016 10.7338L0.416016 8.99207Z" fill="#1C62CD" fill-opacity="1.000000" fill-rule="evenodd"/>
	<path d="M5.11377 11.0671L0 11.0671L0 8.58435L5.11377 8.58435L5.11377 11.0671ZM0.79541 10.326L4.39404 10.326L4.39404 9.32544L0.79541 9.32544L0.79541 10.326Z" fill="#1C62CD" fill-opacity="1.000000" fill-rule="nonzero"/>
	<path d="M0.416016 12.4382L8.29492 12.4382L8.29492 14.1799L0.416016 14.1799L0.416016 12.4382Z" fill="#1C62CD" fill-opacity="1.000000" fill-rule="evenodd"/>
	<path d="M8.67334 14.5507L0.0371094 14.5507L0.0371094 12.0679L8.67334 12.0679L8.67334 14.5507ZM0.794434 13.8096L7.91602 13.8096L7.91602 12.809L0.794434 12.809L0.794434 13.8096Z" fill="#1C62CD" fill-opacity="1.000000" fill-rule="nonzero"/>
	<path d="M2.12012 7.91748L4.08984 7.91748L4.08984 17.6263L2.12012 17.6263L2.12012 7.91748Z" fill="#1C62CD" fill-opacity="1.000000" fill-rule="evenodd"/>
	<path d="M4.46924 17.9968L1.74219 17.9968L1.74219 7.54688L4.46924 7.54688L4.46924 17.9968ZM2.49951 17.2557L3.71191 17.2557L3.71191 8.28796L2.49951 8.28796L2.49951 17.2557Z" fill="#1C62CD" fill-opacity="1.000000" fill-rule="nonzero"/>
</svg>
