<svg width="30.000000" height="30.000000" viewBox="0 0 30 30" fill="none" xmlns="http://www.w3.org/2000/svg" xmlns:xlink="http://www.w3.org/1999/xlink">
	<desc>
			Created with Pixso.
	</desc>
	<defs>
		<clipPath id="clip58_1">
			<rect width="30.000000" height="30.000000" fill="white" fill-opacity="0"/>
		</clipPath>
	</defs>
	<rect width="30.000000" height="30.000000" fill="#FFFFFF" fill-opacity="0"/>
	<g clip-path="url(#clip58_1)">
		<path d="M15.0044 7.29761C10.751 7.29761 7.30713 10.7451 7.30713 14.9951C7.30713 19.2489 10.7544 22.6926 15.0044 22.6926C19.2583 22.6926 22.7021 19.2451 22.7021 14.9951C22.7021 10.7413 19.2544 7.29761 15.0044 7.29761ZM15.0044 19.9913C12.2432 19.9913 10.0083 17.7551 10.0083 14.9951C10.0083 12.2351 12.2446 9.9989 15.0044 9.9989C17.7646 9.9989 20.001 12.2351 20.001 14.9951C20.002 17.7551 17.7661 19.9913 15.0044 19.9913Z" fill="#2F3035" fill-opacity="1.000000" fill-rule="nonzero"/>
		<path d="M21.1846 0.095459C18.4248 -0.0333252 11.5884 -0.0270996 8.82617 0.095459C6.39844 0.209229 4.25732 0.79541 2.53125 2.52173C-0.354004 5.40674 0.0146484 9.29419 0.0146484 14.9955C0.0146484 20.8304 -0.310059 24.6279 2.53125 27.4692C5.42725 30.3643 9.37109 29.9855 15.0049 29.9855C20.7847 29.9855 22.7798 29.9893 24.8237 29.198C27.6021 28.1193 29.6997 25.6355 29.9048 21.1742C30.0347 18.413 30.0273 11.578 29.9048 8.81543C29.6572 3.54919 26.8311 0.355469 21.1846 0.095459ZM25.5537 25.5604C23.6621 27.4517 21.0386 27.283 14.9688 27.283C8.71875 27.283 6.2124 27.3755 4.38379 25.5417C2.27734 23.4454 2.65869 20.0792 2.65869 14.9755C2.65869 8.06921 1.94971 3.09546 8.88086 2.74048C10.4736 2.6842 10.9424 2.66541 14.9512 2.66541L15.0073 2.703C21.6685 2.703 26.895 2.00549 27.2085 8.93542C27.2798 10.5167 27.2959 10.9917 27.2959 14.9943C27.2949 21.1718 27.4121 23.693 25.5537 25.5604Z" fill="#2F3035" fill-opacity="1.000000" fill-rule="nonzero"/>
		<path d="M24.8066 6.99377C24.8066 7.98718 24.001 8.7926 23.0078 8.7926C22.0142 8.7926 21.209 7.98718 21.209 6.99377C21.209 6.00037 22.0142 5.19507 23.0078 5.19507C24.001 5.19507 24.8066 6.00037 24.8066 6.99377Z" fill="#2F3035" fill-opacity="1.000000" fill-rule="evenodd"/>
	</g>
</svg>
