<svg width="24.000000" height="24.000000" viewBox="0 0 24 24" fill="none" xmlns="http://www.w3.org/2000/svg" xmlns:xlink="http://www.w3.org/1999/xlink">
	<desc>
			Created with Pixso.
	</desc>
	<defs/>
	<path d="M23.08 22.2L17.4 16.85C19.25 15.05 20.43 12.61 20.43 9.88C20.43 4.41 15.73 0 9.92 0C4.11 0 -0.59 4.41 -0.59 9.88C-0.59 15.34 4.11 19.76 9.92 19.76C12.14 19.76 14.25 19.06 15.98 17.96L21.79 23.42C21.97 23.6 22.22 23.65 22.47 23.65C22.71 23.65 22.96 23.6 23.15 23.42C23.46 23.07 23.46 22.55 23.08 22.2ZM1.27 9.88C1.27 5.4 5.16 1.74 9.92 1.74C14.68 1.74 18.57 5.4 18.57 9.88C18.57 14.35 14.68 18.02 9.92 18.02C5.16 18.02 1.27 14.35 1.27 9.88Z" fill="#2F3035" fill-opacity="1.000000" fill-rule="nonzero"/>
</svg>
