<svg width="29.999023" height="17.500000" viewBox="0 0 29.999 17.5" fill="none" xmlns="http://www.w3.org/2000/svg" xmlns:xlink="http://www.w3.org/1999/xlink">
	<desc>
			Created with Pixso.
	</desc>
	<defs/>
	<path id="Vector" d="M24.8936 10.035C24.4087 9.42249 24.5474 9.15002 24.8936 8.60254C24.8999 8.59619 28.9038 3.06372 29.3164 1.1875L29.3188 1.18628C29.5239 0.502441 29.3188 0 28.3276 0L25.0474 0C24.2124 0 23.8276 0.431274 23.6211 0.913696C23.6211 0.913696 21.9512 4.91125 19.5889 7.50244C18.8262 8.25122 18.4736 8.49121 18.0576 8.49121C17.8525 8.49121 17.5337 8.25122 17.5337 7.5675L17.5337 1.18628C17.5337 0.366211 17.2998 0 16.6089 0L11.4512 0C10.9277 0 10.6162 0.382446 10.6162 0.73877C10.6162 1.51624 11.7974 1.69495 11.9199 3.88245L11.9199 8.62878C11.9199 9.6687 11.7314 9.85999 11.3125 9.85999C10.1973 9.85999 7.49121 5.84619 5.8877 1.25244C5.56396 0.361206 5.24756 0.0012207 4.40625 0.0012207L1.125 0.0012207C0.188965 0.0012207 0 0.432495 0 0.915039C0 1.76746 1.11523 6.00623 5.18506 11.6062C7.89746 15.4287 11.7173 17.5 15.1924 17.5C17.2812 17.5 17.5361 17.04 17.5361 16.2488C17.5361 12.5962 17.3477 12.2512 18.3936 12.2512C18.8789 12.2512 19.7139 12.4912 21.6636 14.335C23.8926 16.5212 24.2588 17.5 25.5063 17.5L28.7861 17.5C29.7212 17.5 30.1948 17.04 29.9224 16.1324C29.2988 14.2238 25.084 10.2975 24.8936 10.035Z" fill="#2F3035" fill-opacity="1.000000" fill-rule="nonzero"/>
</svg>
