<svg width="30.000000" height="30.000000" viewBox="0 0 30 30" fill="none" xmlns="http://www.w3.org/2000/svg" xmlns:xlink="http://www.w3.org/1999/xlink">
	<desc>
			Created with Pixso.
	</desc>
	<defs>
		<clipPath id="clip58_20">
			<rect width="30.000000" height="30.000000" fill="white" fill-opacity="0"/>
		</clipPath>
	</defs>
	<rect width="30.000000" height="30.000000" fill="#FFFFFF" fill-opacity="0"/>
	<g clip-path="url(#clip58_20)">
		<path d="M13.1318 17.8101L18.0112 14.9999L13.1318 12.1897L13.1318 17.8101Z" fill="#2F3035" fill-opacity="1.000000" fill-rule="nonzero"/>
		<path d="M15 0C6.7168 0 0 6.71704 0 15C0 23.283 6.7168 30 15 30C23.2832 30 30 23.283 30 15C30 6.71704 23.2832 0 15 0ZM24.3726 15.0154C24.3726 15.0154 24.3726 18.0574 23.9868 19.5243C23.7705 20.3273 23.1372 20.9603 22.3345 21.1764C20.8677 21.5625 15 21.5625 15 21.5625C15 21.5625 9.14795 21.5625 7.66553 21.161C6.86279 20.9449 6.22949 20.3116 6.01318 19.5088C5.62695 18.0574 5.62695 15 5.62695 15C5.62695 15 5.62695 11.9581 6.01318 10.4912C6.22949 9.68835 6.87793 9.03967 7.66553 8.82361C9.13232 8.4375 15 8.4375 15 8.4375C15 8.4375 20.8677 8.4375 22.3345 8.83899C23.1372 9.05505 23.7705 9.68835 23.9868 10.4912C24.3882 11.9581 24.3726 15.0154 24.3726 15.0154Z" fill="#2F3035" fill-opacity="1.000000" fill-rule="nonzero"/>
	</g>
</svg>
